<svg id="Layer_1" data-name="Layer 1" xmlns="http://www.w3.org/2000/svg" viewBox="0 0 460 280"><defs><style>.cls-1{fill:#231f20;}.cls-2{fill:#98c93c;}.cls-3{fill:#1b75bb;}</style></defs><title>Artboard 5</title><path class="cls-1" d="M29.44,254.84H5.13a9.43,9.43,0,0,0,3.47,6.42,10.67,10.67,0,0,0,7.17,2.49,9.63,9.63,0,0,0,9.16-5.66h3.85a13.22,13.22,0,0,1-5.13,6.61,14.31,14.31,0,0,1-8,2.48,13.68,13.68,0,0,1-9.83-3.86,13,13,0,0,1-.07-19.4,13.65,13.65,0,0,1,10.47-3.87,14.22,14.22,0,0,1,9.4,4.25A12.09,12.09,0,0,1,29.44,253Zm-3.56-3.17a9.79,9.79,0,0,0-3.56-5.85,10.56,10.56,0,0,0-6.69-2.29,10.61,10.61,0,0,0-6.82,2.22,9.82,9.82,0,0,0-3.68,5.92Z"/><path class="cls-1" d="M61.68,266.55h-3.6V251.49a7.45,7.45,0,0,0-2.51-5.61,8.52,8.52,0,0,0-11.75,0,7.44,7.44,0,0,0-2.5,5.61v15.06H37.71v-14.7a11.16,11.16,0,0,1,3.42-8.34,11.79,11.79,0,0,1,8.59-3.32,11.76,11.76,0,0,1,8.55,3.32,11.19,11.19,0,0,1,3.41,8.34Z"/><path class="cls-1" d="M80.49,267.09q-9.88,0-9.88-8V231.73h3.61v9h6.27v3.21H74.22V258.5q0,5.75,6.27,5.74Z"/><path class="cls-1" d="M112.87,254.84H88.56A9.39,9.39,0,0,0,92,261.26a10.62,10.62,0,0,0,7.16,2.49,9.64,9.64,0,0,0,9.17-5.66h3.84a13.26,13.26,0,0,1-5.12,6.61,14.34,14.34,0,0,1-8,2.48,13.69,13.69,0,0,1-9.83-3.86,13,13,0,0,1-.07-19.4,13.65,13.65,0,0,1,10.47-3.87,14.19,14.19,0,0,1,9.4,4.25,12.06,12.06,0,0,1,3.85,8.68Zm-3.56-3.17a9.89,9.89,0,0,0-3.56-5.85,11.24,11.24,0,0,0-13.51-.07,9.77,9.77,0,0,0-3.68,5.92Z"/><path class="cls-1" d="M131.86,243.71a6.81,6.81,0,0,0-4.08,1.32,9.22,9.22,0,0,0-2.14,2.12,7.67,7.67,0,0,0-.9,4v15.42h-3.8V240.77h3.37v3.67a7.7,7.7,0,0,1,3.37-3.21,8.26,8.26,0,0,1,4.18-.95Z"/><path class="cls-1" d="M164,253.62a13,13,0,0,1-4.23,9.7,13.4,13.4,0,0,1-10.07,3.86,13.89,13.89,0,0,1-10-4.56v13h-3.52V253.66a12.84,12.84,0,0,1,4.25-9.61,14.16,14.16,0,0,1,19.66.21A12.81,12.81,0,0,1,164,253.62Zm-3.61.27a10.37,10.37,0,0,0-10-10.36,9.7,9.7,0,0,0-7.66,3,10.12,10.12,0,0,0,7.13,17.35,10.27,10.27,0,0,0,7.35-2.91A9.75,9.75,0,0,0,160.4,253.89Z"/><path class="cls-1" d="M183.28,243.71A6.85,6.85,0,0,0,179.2,245a9.43,9.43,0,0,0-2.14,2.12,7.67,7.67,0,0,0-.9,4v15.42h-3.8V240.77h3.37v3.67a7.67,7.67,0,0,1,3.38-3.21,8.22,8.22,0,0,1,4.17-.95Z"/><path class="cls-1" d="M194.82,237.7h-3.61v-6h3.61Zm0,28.85h-3.61V240.77h3.61Z"/><path class="cls-1" d="M221,258.86a7,7,0,0,1-2.56,6,8.71,8.71,0,0,1-6.56,2.33,8.43,8.43,0,0,1-5.72-2.63,7.93,7.93,0,0,1-2.3-5.69h3.75v.86a3.91,3.91,0,0,0,1.52,2.74,4.47,4.47,0,0,0,3.23,1.37,5.2,5.2,0,0,0,3.61-1.31,4.33,4.33,0,0,0,1.23-3.09c0-2.21-1.28-3.72-3.95-4.53l-3.17-1c-3.32-1-5.07-3.15-5.22-6.46A6.32,6.32,0,0,1,207,242.4a8.22,8.22,0,0,1,5.45-2.26,7.74,7.74,0,0,1,5.17,1.7,6.06,6.06,0,0,1,2.59,4.54v.77h-3.8v-.59a2.58,2.58,0,0,0-1.21-2.22,4.66,4.66,0,0,0-2.77-.85,4,4,0,0,0-2.64,1,3.38,3.38,0,0,0-1.16,2.5c-.13,1.85,1,3.17,3.46,4l3.14,1Q220.65,253.76,221,258.86Z"/><path class="cls-1" d="M256.5,254.84H232.19a9.39,9.39,0,0,0,3.47,6.42,10.62,10.62,0,0,0,7.16,2.49,9.64,9.64,0,0,0,9.17-5.66h3.85a13.33,13.33,0,0,1-5.13,6.61,14.34,14.34,0,0,1-8,2.48,13.69,13.69,0,0,1-9.83-3.86,13,13,0,0,1-.07-19.4,13.65,13.65,0,0,1,10.47-3.87,14.17,14.17,0,0,1,9.4,4.25A12.06,12.06,0,0,1,256.5,253Zm-3.56-3.17a9.89,9.89,0,0,0-3.56-5.85,11.24,11.24,0,0,0-13.51-.07,9.77,9.77,0,0,0-3.68,5.92Z"/><path class="cls-1" d="M297.33,266.55h-3.61V231.69h3.61Z"/><path class="cls-1" d="M310.15,237.7h-3.61v-6h3.61Zm0,28.85h-3.61V240.77h3.61Z"/><path class="cls-1" d="M358.16,266.55h-3.75V250.72a7.66,7.66,0,0,0-1.81-5.11,5.93,5.93,0,0,0-4.75-2.12,7.68,7.68,0,0,0-5.15,1.85,5.85,5.85,0,0,0-2.16,4.61v16.6h-3.8V250a5.85,5.85,0,0,0-2.16-4.61,7.68,7.68,0,0,0-5.15-1.85,5.82,5.82,0,0,0-4.7,2.1,7.74,7.74,0,0,0-1.76,5.13v15.83h-3.75V251.13a10.61,10.61,0,0,1,2.9-7.78,10.82,10.82,0,0,1,7.12-3.12q5.89-.45,9.4,4.8,3.53-5.25,9.4-4.8a11,11,0,0,1,7.17,3.12,10.48,10.48,0,0,1,3,7.78Z"/><path class="cls-1" d="M370.79,237.7h-3.61v-6h3.61Zm0,28.85h-3.61V240.77h3.61Z"/><path class="cls-1" d="M389.73,267.09q-9.87,0-9.88-8V231.73h3.61v9h6.27v3.21h-6.27V258.5q0,5.75,6.27,5.74Z"/><path class="cls-1" d="M422.11,254.84H397.8a9.43,9.43,0,0,0,3.47,6.42,10.67,10.67,0,0,0,7.17,2.49,9.63,9.63,0,0,0,9.16-5.66h3.85a13.22,13.22,0,0,1-5.13,6.61,14.31,14.31,0,0,1-8,2.48,13.68,13.68,0,0,1-9.83-3.86,13,13,0,0,1-.07-19.4,13.65,13.65,0,0,1,10.47-3.87,14.19,14.19,0,0,1,9.4,4.25,12.09,12.09,0,0,1,3.84,8.68Zm-3.56-3.17a9.79,9.79,0,0,0-3.56-5.85,11.24,11.24,0,0,0-13.51-.07,9.82,9.82,0,0,0-3.68,5.92Z"/><path class="cls-1" d="M457.58,253.8a12.26,12.26,0,0,1-4.18,9.61,13.73,13.73,0,0,1-10.16,3.86,13.43,13.43,0,0,1-9.56-4.07,12.77,12.77,0,0,1-3.92-9.36,13,13,0,0,1,4.22-9.7,13.35,13.35,0,0,1,10-3.86,13.68,13.68,0,0,1,10,4.56v-13h3.61Zm-3.61-.28a9.84,9.84,0,0,0-3-7,9.7,9.7,0,0,0-7.11-2.91,10.14,10.14,0,0,0-7.36,2.89,9.58,9.58,0,0,0-3.11,7.06,10.35,10.35,0,0,0,9.94,10.36A10.21,10.21,0,0,0,454,253.52Z"/><path class="cls-2" d="M68.87,137.92V127.73a48.17,48.17,0,0,1,1.64-12c1.08-4.23,4.56-15.34,11.82-24.34a53.27,53.27,0,0,1,17.43-14,70.37,70.37,0,0,1,33.06-7.84c1.88,0,3.73.07,5.56.19l65.3-65.3H93.41A91.25,91.25,0,0,0,2.16,95.66V205.92l66.71-66.71Z"/><path class="cls-3" d="M73.52,169.12q-4.67-13-4.65-29.65v-.26L2.16,205.92H112.43A62.1,62.1,0,0,1,87.9,191.4,55.9,55.9,0,0,1,73.52,169.12Z"/><path class="cls-3" d="M203.68,4.41l-65.3,65.3c12.22.78,23,4,30,7.75C180.46,84,185,90.65,188.19,99.87a49.46,49.46,0,0,1,2.91,16.38l.15,11.35c0,18.84-10,24.55-20.93,24.55H107.1V153l-.17-.17q2.75,11.76,8.24,17.72,9.75,10.23,29.65,10.22a93.84,93.84,0,0,0,24.56-2.93c5.75-1.53,12.17-4.51,17-9.71a90.86,90.86,0,0,0,17.32-53.46Z"/><path class="cls-3" d="M151.85,126.44h5.65l2.75.17q-.18-14.06-7-21.43Q146.53,98,134,98q-13.2,0-20.91,11.15-4.64,6.51-6.35,17.31h45.09Z"/><path class="cls-2" d="M335.13,88.21a47.55,47.55,0,0,0-19-13.8,77.77,77.77,0,0,0-24.34-4.89,27.29,27.29,0,0,0-3.86-.08c-1.54.06-3.28.2-5.23.43h-.16a1,1,0,0,0-.68.16,14.64,14.64,0,0,0-2.75.35,1.13,1.13,0,0,0-.52.09.85.85,0,0,1-.35.08q-2.39.69-4.88,1.46a38.9,38.9,0,0,0-5,2,60.52,60.52,0,0,0-12.35,8.57,13,13,0,0,0-1.2,1l-1,1a11.51,11.51,0,0,0-1.29,1.12L251.14,87q-.51.69-1,1.29c-.34.4-.69.77-1,1.11-.56.58-1.08,1.12-1.53,1.63s-.82.94-1.23,1.44v-37A35.44,35.44,0,0,0,244,43a58.11,58.11,0,0,0-6.08-11.83,81.64,81.64,0,0,0-17.76-19,51,51,0,0,0-9-5.66,17.3,17.3,0,0,0-7.19-2V52.07c-.1,1.08-.15,2.15-.15,3.23V207s8.12.7,20.4-4.88c13.82-6.28,17-17.41,17-17.41a47.73,47.73,0,0,0,4.8,5.74c1.83,1.88,3.74,3.69,5.74,5.4a76.07,76.07,0,0,0,6.08,4.72,40.87,40.87,0,0,0,5.66,3.34,56.19,56.19,0,0,0,26,6.17q29.34,0,45.44-19.71,16.45-19.55,16.45-52.63Q351.42,106.72,335.13,88.21Zm-35.65,78.68q-8.06,10.63-22.11,10.63a28.79,28.79,0,0,1-22.28-10.11q-8.75-10.29-8.92-26.06a56.9,56.9,0,0,1,2.41-17,26.82,26.82,0,0,1,2.47-5.75c1.09-1.88,2.26-3.74,3.52-5.56q8.06-11.14,22.62-11.15,13.72,0,22.11,10,8.25,10.11,8.24,26.57Q307.54,155.92,299.48,166.89Z"/><path class="cls-3" d="M458.57,165.86q0,21.09-16.63,32.74-16.28,11.49-45.42,11.49-6.69,0-13.13-.52T370.8,208.2a101.12,101.12,0,0,1-11.39-2.14c-3.38-.86-9.56-2.48-12.19-3.51,0,0,2.57-18.7,19.27-23,11.3-2.93,18.48,1.25,27.63,1.25q9.6,0,15.77-2.91,5.82-2.75,5.82-10c0-3.89-2-7-6-9.44a55.08,55.08,0,0,0-8.47-3.61,116.89,116.89,0,0,0-13.13-3.6q-16.62-3.78-27.59-12.19-11.16-8.76-11.14-27,0-20.25,16.8-31.42t42.16-11.16a134.18,134.18,0,0,1,23.15,2.07q5.82,1,10.63,2a71.57,71.57,0,0,1,8.74,2.4s-2.72,26-22.41,23.51c-6.82-.87-9.47-.71-15.64-.71q-11.32,0-16.63,2.74a9,9,0,0,0-5.32,8.57q0,4.8,5.83,7.55a65.15,65.15,0,0,0,9.17,3.42q6.09,1.89,15.35,4.11,19.53,5,28.46,14.92T458.57,165.86Z"/></svg>