<svg id="Layer_1" data-name="Layer 1" xmlns="http://www.w3.org/2000/svg" viewBox="0 0 460 460"><defs><style>.cls-1{fill:#98c93c;}.cls-2{fill:#1b75bb;}</style></defs><title>Artboard 5 copy</title><path class="cls-1" d="M155.47,301.71V279.39a105.26,105.26,0,0,1,3.58-26.27c2.37-9.25,10-33.58,25.87-53.28,9.87-12.2,21.89-22.24,38.16-30.71C243.47,158.51,267.32,152,295.45,152c4.12,0,8.18.15,12.17.4l143-142.95H209.19C98.85,9.43,9.43,98.88,9.43,209.2V450.57l146-146Z"/><path class="cls-2" d="M165.63,370q-10.19-28.51-10.16-64.92v-.56l-146,146H250.82c-20.86-6.79-38.82-17.31-53.7-31.79A122.56,122.56,0,0,1,165.63,370Z"/><path class="cls-2" d="M450.57,9.43l-142.95,143c26.75,1.72,50.37,8.84,65.56,17,26.56,14.21,36.45,28.87,43.48,49.06A108.6,108.6,0,0,1,423,254.26l.32,24.86c0,41.25-22,53.73-45.82,53.73H239.14v1.87l-.36-.38q6,25.74,18,38.8,21.36,22.39,64.91,22.38c19,0,36.75-1.86,53.76-6.42,12.58-3.37,26.65-9.88,37.17-21.26a198.79,198.79,0,0,0,37.92-117Z"/><path class="cls-2" d="M337.11,276.56h12.37l6,.38q-.39-30.76-15.38-46.91-14.64-15.75-42-15.76-28.9,0-45.78,24.4-10.14,14.25-13.89,37.89h98.7Z"/></svg>